<svg xmlns="http://www.w3.org/2000/svg" version="1.0" viewBox="88.15 67.9 201.22 211.55"><defs><clipPath id="a"><path d="M 190 98.386719 L 233.769531 98.386719 L 233.769531 191.386719 L 190 191.386719 Z M 190 98.386719"/></clipPath><clipPath id="b"><path d="M 141.519531 98.386719 L 186 98.386719 L 186 191.386719 L 141.519531 191.386719 Z M 141.519531 98.386719"/></clipPath><clipPath id="c"><path d="M 235.320312 67.902344 L 273.507812 67.902344 L 273.507812 229.902344 L 235.320312 229.902344 Z M 235.320312 67.902344"/></clipPath><clipPath id="d"><path d="M 106.40625 67.902344 L 140.15625 67.902344 L 140.15625 229.902344 L 106.40625 229.902344 Z M 106.40625 67.902344"/></clipPath></defs><g clip-path="url(#a)"><path fill="#26ACE2" d="M 200.136719 114.308594 C 197.753906 114.308594 195.699219 115.695312 194.730469 117.703125 L 190.128906 117.703125 L 190.128906 102.203125 C 193.871094 98.144531 199.917969 97.210938 204.707031 99.953125 C 209.496094 102.699219 211.753906 108.390625 210.144531 113.671875 C 215.203125 111.914062 220.824219 113.417969 224.332031 117.46875 C 227.539062 121.171875 228.386719 126.324219 226.625 130.820312 C 226.460938 131.238281 226.277344 131.652344 226.066406 132.058594 C 236.335938 135.925781 236.335938 153.855469 226.066406 157.722656 C 226.273438 158.128906 226.460938 158.539062 226.625 158.957031 C 228.386719 163.453125 227.539062 168.605469 224.332031 172.308594 C 220.824219 176.359375 215.203125 177.863281 210.144531 176.105469 C 211.753906 181.390625 209.496094 187.078125 204.707031 189.824219 C 199.917969 192.570312 193.871094 191.636719 190.128906 187.574219 L 190.128906 172.074219 L 194.730469 172.074219 C 195.699219 174.085938 197.753906 175.46875 200.136719 175.46875 C 203.453125 175.46875 206.140625 172.78125 206.140625 169.460938 C 206.140625 168.542969 205.9375 167.671875 205.566406 166.894531 C 204.601562 164.863281 202.535156 163.457031 200.136719 163.457031 C 197.738281 163.457031 195.667969 164.863281 194.707031 166.894531 L 192.765625 166.894531 C 191.316406 166.894531 190.128906 165.707031 190.128906 164.253906 L 190.128906 149.710938 C 190.128906 148.222656 191.34375 147.007812 192.828125 147.007812 C 194.3125 147.007812 195.53125 148.222656 195.53125 149.710938 L 195.53125 155.371094 C 195.53125 157.664062 197.40625 159.542969 199.699219 159.542969 L 205.554688 159.542969 C 206.480469 161.660156 208.59375 163.140625 211.054688 163.140625 C 211.417969 163.140625 211.777344 163.109375 212.125 163.042969 C 214.117188 162.6875 215.765625 161.347656 216.558594 159.542969 C 216.878906 158.804688 217.058594 157.988281 217.058594 157.132812 C 217.058594 156.214844 216.855469 155.347656 216.488281 154.574219 C 215.671875 152.847656 214.058594 151.570312 212.125 151.222656 C 211.777344 151.160156 211.417969 151.125 211.054688 151.125 C 208.652344 151.125 206.582031 152.535156 205.621094 154.574219 L 203.230469 154.574219 C 201.726562 154.574219 200.5 153.34375 200.5 151.839844 L 200.5 137.9375 C 200.5 136.4375 201.726562 135.207031 203.230469 135.207031 L 205.621094 135.207031 C 206.582031 137.246094 208.652344 138.652344 211.054688 138.652344 C 211.417969 138.652344 211.777344 138.621094 212.125 138.558594 C 214.058594 138.210938 215.671875 136.933594 216.488281 135.207031 C 216.855469 134.433594 217.058594 133.5625 217.058594 132.648438 C 217.058594 131.792969 216.878906 130.976562 216.558594 130.238281 C 215.765625 128.433594 214.117188 127.09375 212.125 126.734375 C 211.777344 126.671875 211.417969 126.640625 211.054688 126.640625 C 208.59375 126.640625 206.480469 128.117188 205.554688 130.238281 L 199.699219 130.238281 C 197.40625 130.238281 195.53125 132.113281 195.53125 134.40625 L 195.53125 140.070312 C 195.53125 141.554688 194.316406 142.769531 192.828125 142.769531 C 191.34375 142.769531 190.128906 141.554688 190.128906 140.070312 L 190.128906 125.527344 C 190.128906 124.074219 191.316406 122.886719 192.765625 122.886719 L 194.707031 122.886719 C 195.671875 124.917969 197.738281 126.324219 200.136719 126.324219 C 202.535156 126.324219 204.605469 124.917969 205.566406 122.886719 C 205.933594 122.109375 206.140625 121.238281 206.140625 120.320312 C 206.140625 117.003906 203.453125 114.3125 200.136719 114.3125 Z M 200.136719 114.308594" fill-rule="evenodd"/></g><g clip-path="url(#b)"><path d="M 175.148438 114.308594 C 177.53125 114.308594 179.585938 115.695312 180.558594 117.703125 L 185.15625 117.703125 L 185.15625 102.203125 C 181.417969 98.144531 175.367188 97.210938 170.578125 99.953125 C 165.789062 102.699219 163.53125 108.390625 165.140625 113.671875 C 160.082031 111.914062 154.460938 113.417969 150.953125 117.46875 C 147.746094 121.171875 146.898438 126.324219 148.660156 130.820312 C 148.824219 131.238281 149.011719 131.652344 149.21875 132.058594 C 138.953125 135.925781 138.953125 153.855469 149.21875 157.722656 C 149.011719 158.128906 148.824219 158.539062 148.660156 158.957031 C 146.898438 163.453125 147.746094 168.605469 150.953125 172.308594 C 154.460938 176.359375 160.082031 177.863281 165.140625 176.105469 C 163.53125 181.390625 165.789062 187.078125 170.578125 189.824219 C 175.367188 192.570312 181.417969 191.636719 185.15625 187.574219 L 185.15625 172.074219 L 180.558594 172.074219 C 179.585938 174.085938 177.53125 175.46875 175.148438 175.46875 C 171.835938 175.46875 169.144531 172.78125 169.144531 169.460938 C 169.144531 168.542969 169.351562 167.671875 169.71875 166.894531 C 170.679688 164.863281 172.75 163.457031 175.148438 163.457031 C 177.542969 163.457031 179.617188 164.863281 180.578125 166.894531 L 182.515625 166.894531 C 183.96875 166.894531 185.15625 165.707031 185.15625 164.253906 L 185.15625 149.710938 C 185.15625 148.222656 183.941406 147.007812 182.457031 147.007812 C 180.96875 147.007812 179.753906 148.222656 179.753906 149.710938 L 179.753906 155.371094 C 179.753906 157.664062 177.878906 159.542969 175.582031 159.542969 L 169.730469 159.542969 C 168.800781 161.660156 166.6875 163.140625 164.230469 163.140625 C 163.863281 163.140625 163.503906 163.109375 163.160156 163.042969 C 161.167969 162.6875 159.515625 161.347656 158.726562 159.542969 C 158.402344 158.804688 158.222656 157.988281 158.222656 157.132812 C 158.222656 156.214844 158.429688 155.347656 158.796875 154.574219 C 159.609375 152.847656 161.222656 151.570312 163.160156 151.222656 C 163.503906 151.160156 163.863281 151.125 164.230469 151.125 C 166.628906 151.125 168.699219 152.535156 169.660156 154.574219 L 172.054688 154.574219 C 173.554688 154.574219 174.785156 153.34375 174.785156 151.839844 L 174.785156 137.9375 C 174.785156 136.4375 173.554688 135.207031 172.054688 135.207031 L 169.660156 135.207031 C 168.699219 137.246094 166.628906 138.652344 164.230469 138.652344 C 163.863281 138.652344 163.503906 138.621094 163.160156 138.558594 C 161.222656 138.210938 159.613281 136.933594 158.796875 135.207031 C 158.429688 134.433594 158.222656 133.5625 158.222656 132.648438 C 158.222656 131.792969 158.402344 130.976562 158.726562 130.238281 C 159.515625 128.433594 161.167969 127.09375 163.160156 126.734375 C 163.503906 126.671875 163.863281 126.640625 164.230469 126.640625 C 166.6875 126.640625 168.800781 128.117188 169.730469 130.238281 L 175.582031 130.238281 C 177.875 130.238281 179.753906 132.113281 179.753906 134.40625 L 179.753906 140.070312 C 179.753906 141.554688 180.96875 142.769531 182.457031 142.769531 C 183.941406 142.769531 185.15625 141.554688 185.15625 140.070312 L 185.15625 125.527344 C 185.15625 124.074219 183.96875 122.886719 182.515625 122.886719 L 180.578125 122.886719 C 179.617188 124.917969 177.542969 126.324219 175.148438 126.324219 C 172.75 126.324219 170.679688 124.917969 169.71875 122.886719 C 169.351562 122.109375 169.144531 121.238281 169.144531 120.320312 C 169.144531 117.003906 171.832031 114.3125 175.148438 114.3125 Z M 175.148438 114.308594" fill-rule="evenodd"/></g><g clip-path="url(#c)"><path fill="#26ACE2" d="M 139.015625 137.671875 C 143.449219 137.671875 147.050781 141.277344 147.050781 145.707031 C 147.050781 150.140625 143.449219 153.746094 139.015625 153.746094 C 134.582031 153.746094 130.980469 150.140625 130.980469 145.707031 C 130.980469 141.277344 134.582031 137.671875 139.015625 137.671875 Z M 135.8125 82.304688 C 135.8125 76.816406 140.28125 72.347656 145.769531 72.347656 C 151.261719 72.347656 155.726562 76.816406 155.726562 82.304688 C 155.726562 87.796875 151.261719 92.261719 145.769531 92.261719 C 140.28125 92.261719 135.8125 87.796875 135.8125 82.304688 Z M 200.003906 132.359375 C 207.363281 132.359375 213.351562 138.347656 213.351562 145.707031 C 213.351562 153.070312 207.363281 159.058594 200.003906 159.058594 C 192.640625 159.058594 186.652344 153.070312 186.652344 145.707031 C 186.652344 138.347656 192.640625 132.359375 200.003906 132.359375 Z M 165.304688 82.304688 C 165.304688 76.816406 169.769531 72.347656 175.261719 72.347656 C 180.75 72.347656 185.21875 76.816406 185.21875 82.304688 C 185.21875 87.796875 180.75 92.261719 175.261719 92.261719 C 169.769531 92.261719 165.304688 87.796875 165.304688 82.304688 Z M 210.496094 82.304688 C 210.496094 76.816406 214.960938 72.347656 220.453125 72.347656 C 225.941406 72.347656 230.410156 76.816406 230.410156 82.304688 C 230.410156 87.796875 225.941406 92.261719 220.453125 92.261719 C 214.960938 92.261719 210.496094 87.796875 210.496094 82.304688 Z M 239.988281 82.304688 C 239.988281 76.816406 244.453125 72.347656 249.945312 72.347656 C 255.433594 72.347656 259.902344 76.816406 259.902344 82.304688 C 259.902344 87.796875 255.433594 92.261719 249.945312 92.261719 C 244.453125 92.261719 239.988281 87.796875 239.988281 82.304688 Z M 260.988281 137.671875 C 265.421875 137.671875 269.027344 141.277344 269.027344 145.707031 C 269.027344 150.140625 265.421875 153.746094 260.988281 153.746094 C 256.558594 153.746094 252.953125 150.140625 252.953125 145.707031 C 252.953125 141.277344 256.558594 137.671875 260.988281 137.671875 Z M 259.902344 215.5 C 259.902344 220.988281 255.433594 225.457031 249.945312 225.457031 C 244.453125 225.457031 239.988281 220.988281 239.988281 215.5 C 239.988281 210.007812 244.453125 205.542969 249.945312 205.542969 C 255.433594 205.542969 259.902344 210.007812 259.902344 215.5 Z M 230.410156 215.5 C 230.410156 220.988281 225.941406 225.457031 220.453125 225.457031 C 214.960938 225.457031 210.496094 220.988281 210.496094 215.5 C 210.496094 210.007812 214.960938 205.542969 220.453125 205.542969 C 225.941406 205.542969 230.410156 210.007812 230.410156 215.5 Z M 185.21875 215.5 C 185.21875 220.988281 180.75 225.457031 175.261719 225.457031 C 169.769531 225.457031 165.304688 220.988281 165.304688 215.5 C 165.304688 210.007812 169.769531 205.542969 175.261719 205.542969 C 180.75 205.542969 185.21875 210.007812 185.21875 215.5 Z M 155.726562 215.5 C 155.726562 220.988281 151.261719 225.457031 145.769531 225.457031 C 140.28125 225.457031 135.8125 220.988281 135.8125 215.5 C 135.8125 210.007812 140.28125 205.542969 145.769531 205.542969 C 151.261719 205.542969 155.726562 210.007812 155.726562 215.5 Z M 139.015625 158.191406 C 145.140625 158.191406 150.246094 153.757812 151.296875 147.929688 L 182.351562 147.929688 C 182.515625 149.261719 182.828125 150.550781 183.273438 151.773438 L 144.613281 175.34375 C 143.953125 175.746094 143.546875 176.46875 143.546875 177.242188 L 143.546875 201.265625 C 136.65625 202.339844 131.367188 208.3125 131.367188 215.5 C 131.367188 223.441406 137.828125 229.902344 145.769531 229.902344 C 153.714844 229.902344 160.175781 223.441406 160.175781 215.5 C 160.175781 208.3125 154.882812 202.339844 147.996094 201.265625 L 147.996094 178.492188 L 185.3125 155.738281 C 186.191406 157.023438 187.238281 158.1875 188.417969 159.199219 L 173.5625 176.796875 C 173.222656 177.199219 173.039062 177.707031 173.039062 178.230469 L 173.039062 201.265625 C 166.148438 202.339844 160.859375 208.3125 160.859375 215.5 C 160.859375 223.441406 167.320312 229.902344 175.261719 229.902344 C 183.203125 229.902344 189.664062 223.441406 189.664062 215.5 C 189.664062 208.3125 184.375 202.339844 177.484375 201.265625 L 177.484375 179.042969 L 192.148438 161.671875 C 194.519531 162.84375 197.183594 163.503906 200.003906 163.503906 C 201.59375 163.503906 203.132812 163.292969 204.601562 162.898438 L 218.230469 179.042969 L 218.230469 201.265625 C 211.339844 202.339844 206.050781 208.3125 206.050781 215.5 C 206.050781 223.441406 212.511719 229.902344 220.453125 229.902344 C 228.394531 229.902344 234.855469 223.441406 234.855469 215.5 C 234.855469 208.3125 229.566406 202.339844 222.675781 201.265625 L 222.675781 178.230469 C 222.675781 177.707031 222.492188 177.199219 222.152344 176.796875 L 208.910156 161.105469 C 210.5625 160.144531 212.046875 158.929688 213.308594 157.507812 L 247.71875 178.492188 L 247.71875 201.265625 C 240.832031 202.339844 235.539062 208.3125 235.539062 215.5 C 235.539062 223.441406 242 229.902344 249.945312 229.902344 C 257.886719 229.902344 264.347656 223.441406 264.347656 215.5 C 264.347656 208.3125 259.058594 202.339844 252.167969 201.265625 L 252.167969 177.242188 C 252.167969 176.46875 251.765625 175.746094 251.101562 175.34375 L 215.828125 153.835938 C 216.761719 152.027344 217.390625 150.035156 217.652344 147.929688 L 248.707031 147.929688 C 249.761719 153.757812 254.863281 158.191406 260.988281 158.191406 C 267.871094 158.191406 273.472656 152.589844 273.472656 145.707031 C 273.472656 138.824219 267.871094 133.222656 260.988281 133.222656 C 254.863281 133.222656 249.761719 137.660156 248.707031 143.484375 L 217.652344 143.484375 C 217.628906 143.289062 217.605469 143.09375 217.574219 142.902344 L 251.101562 122.460938 C 251.765625 122.058594 252.167969 121.335938 252.167969 120.5625 L 252.167969 96.539062 C 259.058594 95.464844 264.347656 89.492188 264.347656 82.304688 C 264.347656 74.363281 257.886719 67.902344 249.945312 67.902344 C 242 67.902344 235.539062 74.363281 235.539062 82.304688 C 235.539062 89.492188 240.832031 95.464844 247.71875 96.539062 L 247.71875 119.3125 L 216.265625 138.492188 C 215.300781 136.328125 213.917969 134.390625 212.214844 132.78125 L 222.152344 121.007812 C 222.492188 120.605469 222.675781 120.097656 222.675781 119.574219 L 222.675781 96.539062 C 229.566406 95.464844 234.855469 89.492188 234.855469 82.304688 C 234.855469 74.363281 228.394531 67.902344 220.453125 67.902344 C 212.511719 67.902344 206.050781 74.363281 206.050781 82.304688 C 206.050781 89.492188 211.339844 95.464844 218.230469 96.539062 L 218.230469 118.761719 L 208.621094 130.144531 C 206.066406 128.722656 203.128906 127.910156 200.003906 127.910156 C 195.695312 127.910156 191.742188 129.449219 188.664062 132.003906 L 177.484375 118.761719 L 177.484375 96.539062 C 184.375 95.464844 189.664062 89.492188 189.664062 82.304688 C 189.664062 74.363281 183.203125 67.902344 175.261719 67.902344 C 167.320312 67.902344 160.859375 74.363281 160.859375 82.304688 C 160.859375 89.492188 166.148438 95.464844 173.039062 96.539062 L 173.039062 119.574219 C 173.039062 120.097656 173.222656 120.605469 173.5625 121.007812 L 185.601562 135.269531 C 184.433594 136.875 183.53125 138.683594 182.949219 140.625 L 147.996094 119.3125 L 147.996094 96.539062 C 154.882812 95.464844 160.175781 89.492188 160.175781 82.304688 C 160.175781 74.363281 153.714844 67.902344 145.769531 67.902344 C 137.828125 67.902344 131.367188 74.363281 131.367188 82.304688 C 131.367188 89.492188 136.65625 95.464844 143.546875 96.539062 L 143.546875 120.5625 C 143.546875 121.335938 143.953125 122.058594 144.613281 122.460938 L 179.09375 143.484375 L 151.296875 143.484375 C 150.246094 137.660156 145.140625 133.222656 139.015625 133.222656 C 132.132812 133.222656 126.53125 138.824219 126.53125 145.707031 C 126.53125 152.589844 132.132812 158.191406 139.015625 158.191406"/></g><g clip-path="url(#d)"><path d="M 118.917969 137.671875 C 123.347656 137.671875 126.953125 141.277344 126.953125 145.707031 C 126.953125 150.140625 123.347656 153.746094 118.917969 153.746094 C 114.484375 153.746094 110.878906 150.140625 110.878906 145.707031 C 110.878906 141.277344 114.484375 137.671875 118.917969 137.671875 Z M 115.714844 82.304688 C 115.714844 76.816406 120.183594 72.347656 125.671875 72.347656 C 131.164062 72.347656 135.628906 76.816406 135.628906 82.304688 C 135.628906 87.796875 131.164062 92.261719 125.671875 92.261719 C 120.183594 92.261719 115.714844 87.796875 115.714844 82.304688 Z M 179.902344 132.359375 C 187.265625 132.359375 193.253906 138.347656 193.253906 145.707031 C 193.253906 153.070312 187.265625 159.058594 179.902344 159.058594 C 172.542969 159.058594 166.554688 153.070312 166.554688 145.707031 C 166.554688 138.347656 172.542969 132.359375 179.902344 132.359375 Z M 145.207031 82.304688 C 145.207031 76.816406 149.671875 72.347656 155.164062 72.347656 C 160.652344 72.347656 165.121094 76.816406 165.121094 82.304688 C 165.121094 87.796875 160.652344 92.261719 155.164062 92.261719 C 149.671875 92.261719 145.207031 87.796875 145.207031 82.304688 Z M 190.398438 82.304688 C 190.398438 76.816406 194.863281 72.347656 200.355469 72.347656 C 205.84375 72.347656 210.3125 76.816406 210.3125 82.304688 C 210.3125 87.796875 205.84375 92.261719 200.355469 92.261719 C 194.863281 92.261719 190.398438 87.796875 190.398438 82.304688 Z M 219.886719 82.304688 C 219.886719 76.816406 224.355469 72.347656 229.84375 72.347656 C 235.335938 72.347656 239.800781 76.816406 239.800781 82.304688 C 239.800781 87.796875 235.335938 92.261719 229.84375 92.261719 C 224.355469 92.261719 219.886719 87.796875 219.886719 82.304688 Z M 240.890625 137.671875 C 245.320312 137.671875 248.925781 141.277344 248.925781 145.707031 C 248.925781 150.140625 245.320312 153.746094 240.890625 153.746094 C 236.457031 153.746094 232.851562 150.140625 232.851562 145.707031 C 232.851562 141.277344 236.457031 137.671875 240.890625 137.671875 Z M 239.800781 215.5 C 239.800781 220.988281 235.335938 225.457031 229.84375 225.457031 C 224.355469 225.457031 219.886719 220.988281 219.886719 215.5 C 219.886719 210.007812 224.355469 205.542969 229.84375 205.542969 C 235.335938 205.542969 239.800781 210.007812 239.800781 215.5 Z M 210.3125 215.5 C 210.3125 220.988281 205.84375 225.457031 200.355469 225.457031 C 194.863281 225.457031 190.398438 220.988281 190.398438 215.5 C 190.398438 210.007812 194.863281 205.542969 200.355469 205.542969 C 205.84375 205.542969 210.3125 210.007812 210.3125 215.5 Z M 165.121094 215.5 C 165.121094 220.988281 160.652344 225.457031 155.164062 225.457031 C 149.671875 225.457031 145.207031 220.988281 145.207031 215.5 C 145.207031 210.007812 149.671875 205.542969 155.164062 205.542969 C 160.652344 205.542969 165.121094 210.007812 165.121094 215.5 Z M 135.628906 215.5 C 135.628906 220.988281 131.164062 225.457031 125.671875 225.457031 C 120.183594 225.457031 115.714844 220.988281 115.714844 215.5 C 115.714844 210.007812 120.183594 205.542969 125.671875 205.542969 C 131.164062 205.542969 135.628906 210.007812 135.628906 215.5 Z M 118.917969 158.191406 C 125.039062 158.191406 130.144531 153.757812 131.199219 147.929688 L 162.25 147.929688 C 162.417969 149.261719 162.726562 150.550781 163.171875 151.773438 L 124.515625 175.34375 C 123.851562 175.746094 123.449219 176.46875 123.449219 177.242188 L 123.449219 201.265625 C 116.558594 202.339844 111.269531 208.3125 111.269531 215.5 C 111.269531 223.441406 117.730469 229.902344 125.671875 229.902344 C 133.613281 229.902344 140.074219 223.441406 140.074219 215.5 C 140.074219 208.3125 134.785156 202.339844 127.894531 201.265625 L 127.894531 178.492188 L 165.210938 155.738281 C 166.09375 157.023438 167.140625 158.1875 168.316406 159.199219 L 153.464844 176.796875 C 153.125 177.199219 152.9375 177.707031 152.9375 178.230469 L 152.9375 201.265625 C 146.046875 202.339844 140.757812 208.3125 140.757812 215.5 C 140.757812 223.441406 147.21875 229.902344 155.164062 229.902344 C 163.105469 229.902344 169.566406 223.441406 169.566406 215.5 C 169.566406 208.3125 164.277344 202.339844 157.386719 201.265625 L 157.386719 179.042969 L 172.046875 161.671875 C 174.421875 162.84375 177.085938 163.503906 179.902344 163.503906 C 181.496094 163.503906 183.035156 163.292969 184.503906 162.898438 L 198.132812 179.042969 L 198.132812 201.265625 C 191.242188 202.339844 185.949219 208.3125 185.949219 215.5 C 185.949219 223.441406 192.410156 229.902344 200.355469 229.902344 C 208.296875 229.902344 214.757812 223.441406 214.757812 215.5 C 214.757812 208.3125 209.46875 202.339844 202.578125 201.265625 L 202.578125 178.230469 C 202.578125 177.707031 202.390625 177.199219 202.054688 176.796875 L 188.808594 161.105469 C 190.460938 160.144531 191.945312 158.929688 193.207031 157.507812 L 227.621094 178.492188 L 227.621094 201.265625 C 220.730469 202.339844 215.441406 208.3125 215.441406 215.5 C 215.441406 223.441406 221.902344 229.902344 229.84375 229.902344 C 237.789062 229.902344 244.25 223.441406 244.25 215.5 C 244.25 208.3125 238.957031 202.339844 232.070312 201.265625 L 232.070312 177.242188 C 232.070312 176.46875 231.664062 175.746094 231 175.34375 L 195.726562 153.835938 C 196.660156 152.027344 197.292969 150.035156 197.554688 147.929688 L 228.609375 147.929688 C 229.660156 153.757812 234.765625 158.191406 240.890625 158.191406 C 247.773438 158.191406 253.375 152.589844 253.375 145.707031 C 253.375 138.824219 247.773438 133.222656 240.890625 133.222656 C 234.765625 133.222656 229.660156 137.660156 228.609375 143.484375 L 197.554688 143.484375 C 197.53125 143.289062 197.507812 143.09375 197.476562 142.902344 L 231 122.460938 C 231.664062 122.058594 232.070312 121.335938 232.070312 120.5625 L 232.070312 96.539062 C 238.957031 95.464844 244.25 89.492188 244.25 82.304688 C 244.25 74.363281 237.789062 67.902344 229.84375 67.902344 C 221.902344 67.902344 215.441406 74.363281 215.441406 82.304688 C 215.441406 89.492188 220.730469 95.464844 227.621094 96.539062 L 227.621094 119.3125 L 196.167969 138.492188 C 195.203125 136.328125 193.816406 134.390625 192.117188 132.78125 L 202.054688 121.007812 C 202.390625 120.605469 202.578125 120.097656 202.578125 119.574219 L 202.578125 96.539062 C 209.46875 95.464844 214.757812 89.492188 214.757812 82.304688 C 214.757812 74.363281 208.296875 67.902344 200.355469 67.902344 C 192.410156 67.902344 185.949219 74.363281 185.949219 82.304688 C 185.949219 89.492188 191.242188 95.464844 198.132812 96.539062 L 198.132812 118.761719 L 188.523438 130.144531 C 185.96875 128.722656 183.03125 127.910156 179.902344 127.910156 C 175.597656 127.910156 171.644531 129.449219 168.5625 132.003906 L 157.386719 118.761719 L 157.386719 96.539062 C 164.277344 95.464844 169.566406 89.492188 169.566406 82.304688 C 169.566406 74.363281 163.105469 67.902344 155.164062 67.902344 C 147.21875 67.902344 140.757812 74.363281 140.757812 82.304688 C 140.757812 89.492188 146.046875 95.464844 152.9375 96.539062 L 152.9375 119.574219 C 152.9375 120.097656 153.125 120.605469 153.464844 121.007812 L 165.503906 135.269531 C 164.335938 136.875 163.429688 138.683594 162.851562 140.625 L 127.894531 119.3125 L 127.894531 96.539062 C 134.785156 95.464844 140.074219 89.492188 140.074219 82.304688 C 140.074219 74.363281 133.613281 67.902344 125.671875 67.902344 C 117.730469 67.902344 111.269531 74.363281 111.269531 82.304688 C 111.269531 89.492188 116.558594 95.464844 123.449219 96.539062 L 123.449219 120.5625 C 123.449219 121.335938 123.851562 122.058594 124.515625 122.460938 L 158.996094 143.484375 L 131.199219 143.484375 C 130.144531 137.660156 125.039062 133.222656 118.917969 133.222656 C 112.03125 133.222656 106.433594 138.824219 106.433594 145.707031 C 106.433594 152.589844 112.03125 158.191406 118.917969 158.191406"/></g><g><g>
<g ><path d="M 17.734375 -26.515625 C 19.378906 -26.515625 20.84375 -26.132812 22.125 -25.375 C 23.40625 -24.625 24.40625 -23.585938 25.125 -22.265625 C 25.851562 -20.941406 26.21875 -19.457031 26.21875 -17.8125 L 26.21875 -17.3125 C 26.21875 -15.664062 25.851562 -14.171875 25.125 -12.828125 C 24.40625 -11.492188 23.40625 -10.445312 22.125 -9.6875 C 20.84375 -8.9375 19.378906 -8.5625 17.734375 -8.5625 L 11.375 -8.5625 L 11.375 0 L 2.859375 0 L 2.859375 -26.515625 Z M 11.375 -14.765625 L 14.875 -14.765625 C 15.78125 -14.765625 16.457031 -14.992188 16.90625 -15.453125 C 17.351562 -15.921875 17.578125 -16.550781 17.578125 -17.34375 L 17.578125 -17.65625 C 17.578125 -18.476562 17.351562 -19.113281 16.90625 -19.5625 C 16.457031 -20.007812 15.78125 -20.234375 14.875 -20.234375 L 11.375 -20.234375 Z M 11.375 -14.765625" transform="translate(85.29 278.986)"/></g></g></g><g><g><g fill="#26ACE2">
<path d="M 14 -26.984375 C 17.382812 -26.984375 20.171875 -26.296875 22.359375 -24.921875 C 24.546875 -23.546875 25.660156 -21.507812 25.703125 -18.8125 L 25.703125 -18.34375 L 17.734375 -18.34375 L 17.734375 -18.5 C 17.734375 -19.269531 17.445312 -19.910156 16.875 -20.421875 C 16.3125 -20.941406 15.453125 -21.203125 14.296875 -21.203125 C 13.171875 -21.203125 12.304688 -21.035156 11.703125 -20.703125 C 11.097656 -20.367188 10.796875 -19.957031 10.796875 -19.46875 C 10.796875 -18.769531 11.207031 -18.253906 12.03125 -17.921875 C 12.851562 -17.585938 14.175781 -17.242188 16 -16.890625 C 18.132812 -16.453125 19.890625 -15.992188 21.265625 -15.515625 C 22.640625 -15.035156 23.835938 -14.253906 24.859375 -13.171875 C 25.890625 -12.097656 26.414062 -10.632812 26.4375 -8.78125 C 26.4375 -5.65625 25.375 -3.332031 23.25 -1.8125 C 21.132812 -0.289062 18.304688 0.46875 14.765625 0.46875 C 10.628906 0.46875 7.410156 -0.222656 5.109375 -1.609375 C 2.804688 -3.003906 1.65625 -5.460938 1.65625 -8.984375 L 9.71875 -8.984375 C 9.71875 -7.648438 10.0625 -6.753906 10.75 -6.296875 C 11.445312 -5.847656 12.53125 -5.625 14 -5.625 C 15.070312 -5.625 15.960938 -5.738281 16.671875 -5.96875 C 17.378906 -6.207031 17.734375 -6.6875 17.734375 -7.40625 C 17.734375 -8.039062 17.335938 -8.519531 16.546875 -8.84375 C 15.765625 -9.164062 14.488281 -9.507812 12.71875 -9.875 C 10.5625 -10.332031 8.773438 -10.8125 7.359375 -11.3125 C 5.953125 -11.8125 4.71875 -12.640625 3.65625 -13.796875 C 2.601562 -14.953125 2.078125 -16.519531 2.078125 -18.5 C 2.078125 -21.40625 3.203125 -23.546875 5.453125 -24.921875 C 7.703125 -26.296875 10.550781 -26.984375 14 -26.984375 Z M 14 -26.984375" transform="translate(112.347 278.986)"/></g></g></g><g><g>
<g fill="#26ACE2"><path d="M 3.234375 0 L 3.234375 -26.515625 L 11.75 -26.515625 L 11.75 0 Z M 3.234375 0" transform="translate(139.404 278.986)"/></g></g></g><g><g>
<g fill="#26ACE2"><path d="M 16.03125 -26.984375 C 20.601562 -26.984375 24.132812 -25.8125 26.625 -23.46875 C 29.125 -21.132812 30.375 -17.734375 30.375 -13.265625 C 30.375 -8.785156 29.125 -5.375 26.625 -3.03125 C 24.132812 -0.695312 20.601562 0.46875 16.03125 0.46875 C 11.457031 0.46875 7.929688 -0.691406 5.453125 -3.015625 C 2.972656 -5.347656 1.734375 -8.765625 1.734375 -13.265625 C 1.734375 -17.753906 2.972656 -21.160156 5.453125 -23.484375 C 7.929688 -25.816406 11.457031 -26.984375 16.03125 -26.984375 Z M 16.03125 -20.625 C 14.207031 -20.625 12.820312 -20.070312 11.875 -18.96875 C 10.925781 -17.863281 10.453125 -16.375 10.453125 -14.5 L 10.453125 -12.03125 C 10.453125 -10.15625 10.925781 -8.660156 11.875 -7.546875 C 12.820312 -6.441406 14.207031 -5.890625 16.03125 -5.890625 C 17.851562 -5.890625 19.242188 -6.441406 20.203125 -7.546875 C 21.171875 -8.660156 21.65625 -10.15625 21.65625 -12.03125 L 21.65625 -14.5 C 21.65625 -16.375 21.171875 -17.863281 20.203125 -18.96875 C 19.242188 -20.070312 17.851562 -20.625 16.03125 -20.625 Z M 16.03125 -20.625" transform="translate(153.626 278.986)"/></g></g></g>
<g fill="#26ACE2"><g><g><path d="M 21.8125 0 L 10.671875 -12.875 L 10.671875 0 L 2.859375 0 L 2.859375 -26.515625 L 10.296875 -26.515625 L 21.4375 -13.453125 L 21.4375 -26.515625 L 29.25 -26.515625 L 29.25 0 Z M 21.8125 0" transform="translate(184.958 278.986)"/></g></g></g>
<g fill="#26ACE2"><g><g><path d="M 15.5 -26.984375 C 19.425781 -26.984375 22.53125 -26 24.8125 -24.03125 C 27.101562 -22.0625 28.25 -19.253906 28.25 -15.609375 L 20.125 -15.609375 C 20.125 -17.148438 19.71875 -18.367188 18.90625 -19.265625 C 18.09375 -20.171875 16.941406 -20.625 15.453125 -20.625 C 13.734375 -20.625 12.46875 -20.082031 11.65625 -19 C 10.851562 -17.925781 10.453125 -16.425781 10.453125 -14.5 L 10.453125 -12.03125 C 10.453125 -10.125 10.851562 -8.625 11.65625 -7.53125 C 12.46875 -6.4375 13.707031 -5.890625 15.375 -5.890625 C 17.019531 -5.890625 18.265625 -6.3125 19.109375 -7.15625 C 19.960938 -8.007812 20.390625 -9.207031 20.390625 -10.75 L 28.25 -10.75 C 28.25 -7.125 27.140625 -4.347656 24.921875 -2.421875 C 22.703125 -0.492188 19.5625 0.46875 15.5 0.46875 C 10.976562 0.46875 7.550781 -0.6875 5.21875 -3 C 2.894531 -5.3125 1.734375 -8.734375 1.734375 -13.265625 C 1.734375 -17.785156 2.894531 -21.203125 5.21875 -23.515625 C 7.550781 -25.828125 10.976562 -26.984375 15.5 -26.984375 Z M 15.5 -26.984375" transform="translate(230.515 278.986)"/></g></g></g>
<g fill="#26ACE2"><path d="M 3.234375 0 L 3.234375 -26.515625 L 11.75 -26.515625 L 11.75 0 Z M 3.234375 0" transform="translate(216.404 278.986)"/></g>


<g fill="#26ACE2"><g><g><path d="M 20.625 0 L 19.5 -3.734375 L 10.21875 -3.734375 L 9.09375 0 L 0.390625 0 L 10.0625 -26.515625 L 19.96875 -26.515625 L 29.640625 0 Z M 11.984375 -9.671875 L 17.734375 -9.671875 L 14.953125 -19.125 L 14.796875 -19.125 Z M 11.984375 -9.671875" transform="translate(259.73 278.986)"/></g></g></g></svg>